#!OML:ASF F:\VICON\USERDATA\INSTALL\rory3\rory3.ASF
:FULLY-SPECIFIED
:DEGREES
102
root 0.366516 17.4002 23.2524 4.22432 -3.29917 -4.86888
lowerback 18.0965 0.844736 3.47763
upperback 2.41677 1.97773 2.37809
thorax -7.50465 0.88501 0.103642
lowerneck -3.55326 1.13924 0.313372
upperneck -12.3544 1.32596 -2.1972
head -3.33623 0.719477 -0.792912
rclavicle -1.87852e-014 -2.8625e-014
rhumerus -26.3969 13.5924 -75.9355
rradius 102.892
rwrist -12.7262
rhand -39.5227 29.724
rfingers 7.12502
rthumb -12.5077 0.118331
lclavicle -1.87852e-014 -2.8625e-014
lhumerus -53.2345 -13.9475 94.1817
lradius 105.78
lwrist 32.7439
lhand -35.4751 21.0962
lfingers 7.12502
lthumb -8.60332 50.9009
rfemur -6.84646 6.71812 31.3936
rtibia 38.2705
rfoot -16.0222 -8.77225
rtoes -15.6399
lfemur -32.2199 11.2995 -10.369
ltibia 118.723
lfoot 9.66724 -17.6817
ltoes -16.6412
103
root 0.386906 17.4598 23.7268 4.37617 -3.01784 -5.02034
lowerback 18.4368 1.01244 3.95007
upperback 2.15657 2.31194 2.25087
thorax -7.94224 1.01976 -0.390023
lowerneck -3.55571 0.970273 0.385684
upperneck -12.2144 1.12083 -2.004
head -3.29028 0.608282 -0.73733
rclavicle 1.41137e-014 2.18663e-014
rhumerus -25.7193 13.0635 -75.8304
rradius 103.49
rwrist -12.6676
rhand -39.0772 30.5644
rfingers 7.12502
rthumb -12.0781 0.933016
lclavicle 1.41137e-014 2.18663e-014
lhumerus -54.1824 -14.1924 94.2549
lradius 106.154
lwrist 32.722
lhand -35.219 23.2855
lfingers 7.12502
lthumb -8.35617 53.1002
rfemur -4.67283 6.3257 31.4356
rtibia 36.8924
rfoot -14.6072 -7.89022
rtoes -16.9195
lfemur -35.1118 9.84149 -11.208
ltibia 117.333
lfoot 10.1595 -18.0732
ltoes -13.5624
104
root 0.417667 17.5316 24.2343 4.76424 -2.89002 -4.72451
lowerback 17.8922 1.24262 4.15534
upperback 2.06237 2.6018 1.93574
thorax -7.71173 1.15286 -0.901846
lowerneck -4.15493 0.732438 0.527654
upperneck -11.5955 0.819572 -1.89064
head -2.97146 0.444405 -0.709693
rclavicle 3.8763e-015 3.97569e-015
rhumerus -25.0894 12.5876 -75.9076
rradius 104.209
rwrist -12.6862
rhand -39.9198 30.9751
rfingers 7.12502
rthumb -12.8904 1.39317
lclavicle 3.8763e-015 3.97569e-015
lhumerus -54.8059 -14.3711 94.1868
lradius 106.57
lwrist 32.6168
lhand -34.1101 22.3884
lfingers 7.12502
lthumb -7.28585 52.2429
rfemur -2.68237 5.82593 30.8005
rtibia 35.3771
rfoot -12.8242 -6.51829
rtoes -18.3588
lfemur -37.5882 8.23798 -12.6786
ltibia 115.361
lfoot 9.7055 -17.8285
ltoes -12.345
105
root 0.436943 17.6471 24.7651 5.04205 -3.05998 -4.88789
lowerback 17.6064 1.56029 4.56136
upperback 1.95047 3.07143 1.75908
thorax -7.62457 1.36514 -1.42247
lowerneck -4.82224 0.576139 0.468941
upperneck -10.9076 0.651654 -1.50901
head -2.62136 0.348562 -0.565657
rclavicle 2.5345e-014 3.57812e-015
rhumerus -24.8058 11.9506 -76.1893
rradius 104.863
rwrist -12.8225
rhand -39.9136 31.6835
rfingers 7.12502
rthumb -12.8845 2.10125
lclavicle 2.5345e-014 3.57812e-015
lhumerus -55.5266 -14.4248 94.1038
lradius 107.049
lwrist 32.439
lhand -33.453 22.3817
lfingers 7.12502
lthumb -6.65154 52.2573
rfemur -0.509533 5.90704 30.7515
rtibia 33.6637
rfoot -10.3123 -5.36772
rtoes -20.1855
lfemur -39.4832 7.2755 -13.1663
ltibia 112.85
lfoot 8.17302 -17.5379
ltoes -13.9623
106
root 0.461997 17.7532 25.2861 5.3611 -2.97431 -4.74002
lowerback 17.5325 1.79857 4.78885
upperback 1.72601 3.41462 1.5128
thorax -7.78007 1.51248 -1.89566
lowerneck -5.22557 0.460658 -0.0214497
upperneck -10.5193 0.576553 -0.716595
head -2.42326 0.309526 -0.226505
rclavicle -1.27222e-014 -4.96962e-015
rhumerus -24.9644 11.3615 -76.4746
rradius 105.84
rwrist -13.0671
rhand -40.0403 32.3659
rfingers 7.12502
rthumb -13.0067 2.79138
lclavicle -1.27222e-014 -4.96962e-015
lhumerus -56.3598 -14.2633 94.0246
lradius 107.635
lwrist 32.2363
lhand -32.535 22.0714
lfingers 7.12502
lthumb -5.76524 51.9729
rfemur 1.58205 5.97765 30.3968
rtibia 31.8144
rfoot -7.39284 -4.28112
rtoes -20.6208
lfemur -41.459 5.85597 -13.9228
ltibia 110.048
lfoot 7.41633 -16.5678
ltoes -14.6776
